<?xml version="1.0" encoding="UTF-8"?>
<!DOCTYPE svg PUBLIC "-//W3C//DTD SVG 1.1//EN" "http://www.w3.org/Graphics/SVG/1.1/DTD/svg11.dtd">
<svg width="312mm" height="180mm" viewBox="0 0 31200 18000" version="1.1" xmlns="http://www.w3.org/2000/svg" xmlns:xlink="http://www.w3.org/1999/xlink" stroke-width="28.222" stroke-linejoin="round" xml:space="preserve">
 <path fill="rgb(222,230,239)" stroke="none" d="M 15584,18005 L -13,18005 -13,-13 31181,-13 31181,18005 15584,18005 Z"/>
 <path fill="none" stroke="rgb(179,179,179)" stroke-linejoin="round" d="M 15058,15873 L 2863,15873 2863,546 27253,546 27253,15873 15058,15873 Z"/>
 <path fill="none" stroke="rgb(179,179,179)" stroke-linejoin="round" d="M 27253,15872 L 2863,15872"/>
 <path fill="none" stroke="rgb(179,179,179)" stroke-linejoin="round" d="M 27253,13956 L 2863,13956"/>
 <path fill="none" stroke="rgb(179,179,179)" stroke-linejoin="round" d="M 27253,12040 L 2863,12040"/>
 <path fill="none" stroke="rgb(179,179,179)" stroke-linejoin="round" d="M 27253,10124 L 2863,10124"/>
 <path fill="none" stroke="rgb(179,179,179)" stroke-linejoin="round" d="M 27253,8209 L 2863,8209"/>
 <path fill="none" stroke="rgb(179,179,179)" stroke-linejoin="round" d="M 27253,6293 L 2863,6293"/>
 <path fill="none" stroke="rgb(179,179,179)" stroke-linejoin="round" d="M 27253,4377 L 2863,4377"/>
 <path fill="none" stroke="rgb(179,179,179)" stroke-linejoin="round" d="M 27253,2461 L 2863,2461"/>
 <path fill="none" stroke="rgb(179,179,179)" stroke-linejoin="round" d="M 27253,545 L 2863,545"/>
 <path fill="none" stroke="rgb(179,179,179)" stroke-linejoin="round" d="M 2863,16022 L 2863,15872"/>
 <path fill="none" stroke="rgb(179,179,179)" stroke-linejoin="round" d="M 2863,16022 L 2863,15872"/>
 <path fill="none" stroke="rgb(179,179,179)" stroke-linejoin="round" d="M 27253,16022 L 27253,15872"/>
 <path fill="none" stroke="rgb(179,179,179)" stroke-linejoin="round" d="M 27253,16022 L 27253,15872"/>
 <path fill="none" stroke="rgb(179,179,179)" stroke-linejoin="round" d="M 2863,15872 L 27253,15872"/>
 <path fill="none" stroke="rgb(179,179,179)" stroke-linejoin="round" d="M 2713,15872 L 2863,15872"/>
 <path fill="none" stroke="rgb(179,179,179)" stroke-linejoin="round" d="M 2713,15872 L 2863,15872"/>
 <path fill="none" stroke="rgb(179,179,179)" stroke-linejoin="round" d="M 2713,13956 L 2863,13956"/>
 <path fill="none" stroke="rgb(179,179,179)" stroke-linejoin="round" d="M 2713,13956 L 2863,13956"/>
 <path fill="none" stroke="rgb(179,179,179)" stroke-linejoin="round" d="M 2713,12040 L 2863,12040"/>
 <path fill="none" stroke="rgb(179,179,179)" stroke-linejoin="round" d="M 2713,12040 L 2863,12040"/>
 <path fill="none" stroke="rgb(179,179,179)" stroke-linejoin="round" d="M 2713,10124 L 2863,10124"/>
 <path fill="none" stroke="rgb(179,179,179)" stroke-linejoin="round" d="M 2713,10124 L 2863,10124"/>
 <path fill="none" stroke="rgb(179,179,179)" stroke-linejoin="round" d="M 2713,8209 L 2863,8209"/>
 <path fill="none" stroke="rgb(179,179,179)" stroke-linejoin="round" d="M 2713,8209 L 2863,8209"/>
 <path fill="none" stroke="rgb(179,179,179)" stroke-linejoin="round" d="M 2713,6293 L 2863,6293"/>
 <path fill="none" stroke="rgb(179,179,179)" stroke-linejoin="round" d="M 2713,6293 L 2863,6293"/>
 <path fill="none" stroke="rgb(179,179,179)" stroke-linejoin="round" d="M 2713,4377 L 2863,4377"/>
 <path fill="none" stroke="rgb(179,179,179)" stroke-linejoin="round" d="M 2713,4377 L 2863,4377"/>
 <path fill="none" stroke="rgb(179,179,179)" stroke-linejoin="round" d="M 2713,2461 L 2863,2461"/>
 <path fill="none" stroke="rgb(179,179,179)" stroke-linejoin="round" d="M 2713,2461 L 2863,2461"/>
 <path fill="none" stroke="rgb(179,179,179)" stroke-linejoin="round" d="M 2713,545 L 2863,545"/>
 <path fill="none" stroke="rgb(179,179,179)" stroke-linejoin="round" d="M 2713,545 L 2863,545"/>
 <path fill="none" stroke="rgb(179,179,179)" stroke-linejoin="round" d="M 2863,15872 L 2863,545"/>
 <path fill="rgb(0,69,134)" stroke="none" d="M 6928,15872 L 15058,15872 15058,9932 6928,9932 6928,15872 Z"/>
 <path fill="rgb(255,66,14)" stroke="none" d="M 15058,15872 L 23187,15872 23187,1694 15058,1694 15058,15872 Z"/>
 <text class="SVGTextShape"><tspan class="TextParagraph" font-family="Liberation Sans, sans-serif" font-size="353px" font-weight="400"><tspan class="TextPosition" x="14965" y="16440"><tspan fill="rgb(0,0,0)" stroke="none" style="white-space: pre">1</tspan></tspan></tspan></text>
 <text class="SVGTextShape"><tspan class="TextParagraph" font-family="Liberation Sans, sans-serif" font-size="353px" font-weight="400"><tspan class="TextPosition" x="1766" y="15993"><tspan fill="rgb(0,0,0)" stroke="none" style="white-space: pre">1.270</tspan></tspan></tspan></text>
 <text class="SVGTextShape"><tspan class="TextParagraph" font-family="Liberation Sans, sans-serif" font-size="353px" font-weight="400"><tspan class="TextPosition" x="1766" y="14077"><tspan fill="rgb(0,0,0)" stroke="none" style="white-space: pre">1.280</tspan></tspan></tspan></text>
 <text class="SVGTextShape"><tspan class="TextParagraph" font-family="Liberation Sans, sans-serif" font-size="353px" font-weight="400"><tspan class="TextPosition" x="1766" y="12161"><tspan fill="rgb(0,0,0)" stroke="none" style="white-space: pre">1.290</tspan></tspan></tspan></text>
 <text class="SVGTextShape"><tspan class="TextParagraph" font-family="Liberation Sans, sans-serif" font-size="353px" font-weight="400"><tspan class="TextPosition" x="1766" y="10245"><tspan fill="rgb(0,0,0)" stroke="none" style="white-space: pre">1.300</tspan></tspan></tspan></text>
 <text class="SVGTextShape"><tspan class="TextParagraph" font-family="Liberation Sans, sans-serif" font-size="353px" font-weight="400"><tspan class="TextPosition" x="1766" y="8329"><tspan fill="rgb(0,0,0)" stroke="none" style="white-space: pre">1.310</tspan></tspan></tspan></text>
 <text class="SVGTextShape"><tspan class="TextParagraph" font-family="Liberation Sans, sans-serif" font-size="353px" font-weight="400"><tspan class="TextPosition" x="1766" y="6413"><tspan fill="rgb(0,0,0)" stroke="none" style="white-space: pre">1.320</tspan></tspan></tspan></text>
 <text class="SVGTextShape"><tspan class="TextParagraph" font-family="Liberation Sans, sans-serif" font-size="353px" font-weight="400"><tspan class="TextPosition" x="1766" y="4497"><tspan fill="rgb(0,0,0)" stroke="none" style="white-space: pre">1.330</tspan></tspan></tspan></text>
 <text class="SVGTextShape"><tspan class="TextParagraph" font-family="Liberation Sans, sans-serif" font-size="353px" font-weight="400"><tspan class="TextPosition" x="1766" y="2581"><tspan fill="rgb(0,0,0)" stroke="none" style="white-space: pre">1.340</tspan></tspan></tspan></text>
 <text class="SVGTextShape"><tspan class="TextParagraph" font-family="Liberation Sans, sans-serif" font-size="353px" font-weight="400"><tspan class="TextPosition" x="1766" y="665"><tspan fill="rgb(0,0,0)" stroke="none" style="white-space: pre">1.350</tspan></tspan></tspan></text>
 <path fill="rgb(0,69,134)" stroke="none" d="M 28142,8847 L 28015,8847 28015,8593 28269,8593 28269,8847 28142,8847 Z"/>
 <path fill="rgb(255,66,14)" stroke="none" d="M 28142,9397 L 28015,9397 28015,9143 28269,9143 28269,9397 28142,9397 Z"/>
 <text class="SVGTextShape"><tspan class="TextParagraph" font-family="Liberation Sans, sans-serif" font-size="423px" font-weight="400"><tspan class="TextPosition" x="28369" y="8865"><tspan fill="rgb(0,0,0)" stroke="none" style="white-space: pre">new &amp; delete</tspan></tspan></tspan></text>
 <text class="SVGTextShape"><tspan class="TextParagraph" font-family="Liberation Sans, sans-serif" font-size="423px" font-weight="400"><tspan class="TextPosition" x="28369" y="9415"><tspan fill="rgb(0,0,0)" stroke="none" style="white-space: pre">std::mutex</tspan></tspan></tspan></text>
 <text class="SVGTextShape"><tspan class="TextParagraph" font-family="Liberation Sans, sans-serif" font-size="423px" font-weight="400"><tspan class="TextPosition" x="13728" y="17378"><tspan fill="rgb(0,0,0)" stroke="none" style="white-space: pre">Threads</tspan></tspan></tspan></text>
 <text class="SVGTextShape" transform="rotate(-90 935 9227)"><tspan class="TextParagraph" font-family="Liberation Sans, sans-serif" font-size="423px" font-weight="400"><tspan class="TextPosition" x="935" y="9227"><tspan fill="rgb(0,0,0)" stroke="none" style="white-space: pre">seconds</tspan></tspan></tspan></text>
</svg>