<?xml version="1.0" encoding="UTF-8"?>
<!DOCTYPE svg PUBLIC "-//W3C//DTD SVG 1.1//EN" "http://www.w3.org/Graphics/SVG/1.1/DTD/svg11.dtd">
<svg width="406mm" height="168mm" viewBox="0 0 40600 16800" version="1.1" xmlns="http://www.w3.org/2000/svg" xmlns:xlink="http://www.w3.org/1999/xlink" stroke-width="28.222" stroke-linejoin="round" xml:space="preserve">
 <path fill="rgb(222,230,239)" stroke="none" d="M 20258,16815 L -13,16815 -13,-13 40529,-13 40529,16815 20258,16815 Z"/>
 <path fill="none" stroke="rgb(179,179,179)" stroke-linejoin="round" d="M 19366,14707 L 3050,14707 3050,523 35681,523 35681,14707 19366,14707 Z"/>
 <path fill="none" stroke="rgb(179,179,179)" stroke-linejoin="round" d="M 35680,14706 L 3050,14706"/>
 <path fill="none" stroke="rgb(179,179,179)" stroke-linejoin="round" d="M 35680,12341 L 3050,12341"/>
 <path fill="none" stroke="rgb(179,179,179)" stroke-linejoin="round" d="M 35680,9977 L 3050,9977"/>
 <path fill="none" stroke="rgb(179,179,179)" stroke-linejoin="round" d="M 35680,7614 L 3050,7614"/>
 <path fill="none" stroke="rgb(179,179,179)" stroke-linejoin="round" d="M 35680,5250 L 3050,5250"/>
 <path fill="none" stroke="rgb(179,179,179)" stroke-linejoin="round" d="M 35680,2886 L 3050,2886"/>
 <path fill="none" stroke="rgb(179,179,179)" stroke-linejoin="round" d="M 35680,521 L 3050,521"/>
 <path fill="none" stroke="rgb(179,179,179)" stroke-linejoin="round" d="M 3050,14856 L 3050,14706"/>
 <path fill="none" stroke="rgb(179,179,179)" stroke-linejoin="round" d="M 3050,14856 L 3050,14706"/>
 <path fill="none" stroke="rgb(179,179,179)" stroke-linejoin="round" d="M 5225,14856 L 5225,14706"/>
 <path fill="none" stroke="rgb(179,179,179)" stroke-linejoin="round" d="M 5225,14856 L 5225,14706"/>
 <path fill="none" stroke="rgb(179,179,179)" stroke-linejoin="round" d="M 7400,14856 L 7400,14706"/>
 <path fill="none" stroke="rgb(179,179,179)" stroke-linejoin="round" d="M 7400,14856 L 7400,14706"/>
 <path fill="none" stroke="rgb(179,179,179)" stroke-linejoin="round" d="M 9576,14856 L 9576,14706"/>
 <path fill="none" stroke="rgb(179,179,179)" stroke-linejoin="round" d="M 9576,14856 L 9576,14706"/>
 <path fill="none" stroke="rgb(179,179,179)" stroke-linejoin="round" d="M 11751,14856 L 11751,14706"/>
 <path fill="none" stroke="rgb(179,179,179)" stroke-linejoin="round" d="M 11751,14856 L 11751,14706"/>
 <path fill="none" stroke="rgb(179,179,179)" stroke-linejoin="round" d="M 13927,14856 L 13927,14706"/>
 <path fill="none" stroke="rgb(179,179,179)" stroke-linejoin="round" d="M 13927,14856 L 13927,14706"/>
 <path fill="none" stroke="rgb(179,179,179)" stroke-linejoin="round" d="M 16102,14856 L 16102,14706"/>
 <path fill="none" stroke="rgb(179,179,179)" stroke-linejoin="round" d="M 16102,14856 L 16102,14706"/>
 <path fill="none" stroke="rgb(179,179,179)" stroke-linejoin="round" d="M 18278,14856 L 18278,14706"/>
 <path fill="none" stroke="rgb(179,179,179)" stroke-linejoin="round" d="M 18278,14856 L 18278,14706"/>
 <path fill="none" stroke="rgb(179,179,179)" stroke-linejoin="round" d="M 20452,14856 L 20452,14706"/>
 <path fill="none" stroke="rgb(179,179,179)" stroke-linejoin="round" d="M 20452,14856 L 20452,14706"/>
 <path fill="none" stroke="rgb(179,179,179)" stroke-linejoin="round" d="M 22628,14856 L 22628,14706"/>
 <path fill="none" stroke="rgb(179,179,179)" stroke-linejoin="round" d="M 22628,14856 L 22628,14706"/>
 <path fill="none" stroke="rgb(179,179,179)" stroke-linejoin="round" d="M 24803,14856 L 24803,14706"/>
 <path fill="none" stroke="rgb(179,179,179)" stroke-linejoin="round" d="M 24803,14856 L 24803,14706"/>
 <path fill="none" stroke="rgb(179,179,179)" stroke-linejoin="round" d="M 26979,14856 L 26979,14706"/>
 <path fill="none" stroke="rgb(179,179,179)" stroke-linejoin="round" d="M 26979,14856 L 26979,14706"/>
 <path fill="none" stroke="rgb(179,179,179)" stroke-linejoin="round" d="M 29154,14856 L 29154,14706"/>
 <path fill="none" stroke="rgb(179,179,179)" stroke-linejoin="round" d="M 29154,14856 L 29154,14706"/>
 <path fill="none" stroke="rgb(179,179,179)" stroke-linejoin="round" d="M 31330,14856 L 31330,14706"/>
 <path fill="none" stroke="rgb(179,179,179)" stroke-linejoin="round" d="M 31330,14856 L 31330,14706"/>
 <path fill="none" stroke="rgb(179,179,179)" stroke-linejoin="round" d="M 33505,14856 L 33505,14706"/>
 <path fill="none" stroke="rgb(179,179,179)" stroke-linejoin="round" d="M 33505,14856 L 33505,14706"/>
 <path fill="none" stroke="rgb(179,179,179)" stroke-linejoin="round" d="M 35680,14856 L 35680,14706"/>
 <path fill="none" stroke="rgb(179,179,179)" stroke-linejoin="round" d="M 35680,14856 L 35680,14706"/>
 <path fill="none" stroke="rgb(179,179,179)" stroke-linejoin="round" d="M 3050,14706 L 35680,14706"/>
 <path fill="none" stroke="rgb(179,179,179)" stroke-linejoin="round" d="M 2900,14706 L 3050,14706"/>
 <path fill="none" stroke="rgb(179,179,179)" stroke-linejoin="round" d="M 2900,14706 L 3050,14706"/>
 <path fill="none" stroke="rgb(179,179,179)" stroke-linejoin="round" d="M 2900,12341 L 3050,12341"/>
 <path fill="none" stroke="rgb(179,179,179)" stroke-linejoin="round" d="M 2900,12341 L 3050,12341"/>
 <path fill="none" stroke="rgb(179,179,179)" stroke-linejoin="round" d="M 2900,9977 L 3050,9977"/>
 <path fill="none" stroke="rgb(179,179,179)" stroke-linejoin="round" d="M 2900,9977 L 3050,9977"/>
 <path fill="none" stroke="rgb(179,179,179)" stroke-linejoin="round" d="M 2900,7614 L 3050,7614"/>
 <path fill="none" stroke="rgb(179,179,179)" stroke-linejoin="round" d="M 2900,7614 L 3050,7614"/>
 <path fill="none" stroke="rgb(179,179,179)" stroke-linejoin="round" d="M 2900,5250 L 3050,5250"/>
 <path fill="none" stroke="rgb(179,179,179)" stroke-linejoin="round" d="M 2900,5250 L 3050,5250"/>
 <path fill="none" stroke="rgb(179,179,179)" stroke-linejoin="round" d="M 2900,2886 L 3050,2886"/>
 <path fill="none" stroke="rgb(179,179,179)" stroke-linejoin="round" d="M 2900,2886 L 3050,2886"/>
 <path fill="none" stroke="rgb(179,179,179)" stroke-linejoin="round" d="M 2900,521 L 3050,521"/>
 <path fill="none" stroke="rgb(179,179,179)" stroke-linejoin="round" d="M 2900,521 L 3050,521"/>
 <path fill="none" stroke="rgb(179,179,179)" stroke-linejoin="round" d="M 3050,14706 L 3050,521"/>
 <path fill="none" stroke="rgb(0,69,134)" stroke-width="80" stroke-linejoin="round" d="M 3050,2403 L 5225,2403 5225,8601 7400,8601 7400,9971 9576,9971 9576,10904 11751,10904 11751,11282 13927,11282 13927,11402 16102,11402 16102,11569 18278,11569 18278,11866 20452,11866 20452,11961 22628,11961 22628,12048 24803,12048 24803,12168 26979,12168 26979,12021 29154,12021 29154,12202 31330,12202 31330,12131 33505,12131 33505,11886 35680,11886 35680,12066"/>
 <path fill="rgb(0,69,134)" stroke="none" d="M 2925,2278 L 2925,2528 3175,2528 3175,2278 2925,2278 Z"/>
 <path fill="none" stroke="rgb(0,69,134)" stroke-linejoin="round" d="M 2925,2278 L 2925,2528 3175,2528 3175,2278 2925,2278 Z"/>
 <path fill="rgb(0,69,134)" stroke="none" d="M 5100,8476 L 5100,8726 5350,8726 5350,8476 5100,8476 Z"/>
 <path fill="none" stroke="rgb(0,69,134)" stroke-linejoin="round" d="M 5100,8476 L 5100,8726 5350,8726 5350,8476 5100,8476 Z"/>
 <path fill="rgb(0,69,134)" stroke="none" d="M 7275,9846 L 7275,10096 7525,10096 7525,9846 7275,9846 Z"/>
 <path fill="none" stroke="rgb(0,69,134)" stroke-linejoin="round" d="M 7275,9846 L 7275,10096 7525,10096 7525,9846 7275,9846 Z"/>
 <path fill="rgb(0,69,134)" stroke="none" d="M 9451,10779 L 9451,11029 9701,11029 9701,10779 9451,10779 Z"/>
 <path fill="none" stroke="rgb(0,69,134)" stroke-linejoin="round" d="M 9451,10779 L 9451,11029 9701,11029 9701,10779 9451,10779 Z"/>
 <path fill="rgb(0,69,134)" stroke="none" d="M 11626,11157 L 11626,11407 11876,11407 11876,11157 11626,11157 Z"/>
 <path fill="none" stroke="rgb(0,69,134)" stroke-linejoin="round" d="M 11626,11157 L 11626,11407 11876,11407 11876,11157 11626,11157 Z"/>
 <path fill="rgb(0,69,134)" stroke="none" d="M 13802,11277 L 13802,11527 14052,11527 14052,11277 13802,11277 Z"/>
 <path fill="none" stroke="rgb(0,69,134)" stroke-linejoin="round" d="M 13802,11277 L 13802,11527 14052,11527 14052,11277 13802,11277 Z"/>
 <path fill="rgb(0,69,134)" stroke="none" d="M 15977,11444 L 15977,11694 16227,11694 16227,11444 15977,11444 Z"/>
 <path fill="none" stroke="rgb(0,69,134)" stroke-linejoin="round" d="M 15977,11444 L 15977,11694 16227,11694 16227,11444 15977,11444 Z"/>
 <path fill="rgb(0,69,134)" stroke="none" d="M 18153,11741 L 18153,11991 18403,11991 18403,11741 18153,11741 Z"/>
 <path fill="none" stroke="rgb(0,69,134)" stroke-linejoin="round" d="M 18153,11741 L 18153,11991 18403,11991 18403,11741 18153,11741 Z"/>
 <path fill="rgb(0,69,134)" stroke="none" d="M 20327,11836 L 20327,12086 20577,12086 20577,11836 20327,11836 Z"/>
 <path fill="none" stroke="rgb(0,69,134)" stroke-linejoin="round" d="M 20327,11836 L 20327,12086 20577,12086 20577,11836 20327,11836 Z"/>
 <path fill="rgb(0,69,134)" stroke="none" d="M 22503,11923 L 22503,12173 22753,12173 22753,11923 22503,11923 Z"/>
 <path fill="none" stroke="rgb(0,69,134)" stroke-linejoin="round" d="M 22503,11923 L 22503,12173 22753,12173 22753,11923 22503,11923 Z"/>
 <path fill="rgb(0,69,134)" stroke="none" d="M 24678,12043 L 24678,12293 24928,12293 24928,12043 24678,12043 Z"/>
 <path fill="none" stroke="rgb(0,69,134)" stroke-linejoin="round" d="M 24678,12043 L 24678,12293 24928,12293 24928,12043 24678,12043 Z"/>
 <path fill="rgb(0,69,134)" stroke="none" d="M 26854,11896 L 26854,12146 27104,12146 27104,11896 26854,11896 Z"/>
 <path fill="none" stroke="rgb(0,69,134)" stroke-linejoin="round" d="M 26854,11896 L 26854,12146 27104,12146 27104,11896 26854,11896 Z"/>
 <path fill="rgb(0,69,134)" stroke="none" d="M 29029,12077 L 29029,12327 29279,12327 29279,12077 29029,12077 Z"/>
 <path fill="none" stroke="rgb(0,69,134)" stroke-linejoin="round" d="M 29029,12077 L 29029,12327 29279,12327 29279,12077 29029,12077 Z"/>
 <path fill="rgb(0,69,134)" stroke="none" d="M 31205,12006 L 31205,12256 31455,12256 31455,12006 31205,12006 Z"/>
 <path fill="none" stroke="rgb(0,69,134)" stroke-linejoin="round" d="M 31205,12006 L 31205,12256 31455,12256 31455,12006 31205,12006 Z"/>
 <path fill="rgb(0,69,134)" stroke="none" d="M 33380,11761 L 33380,12011 33630,12011 33630,11761 33380,11761 Z"/>
 <path fill="none" stroke="rgb(0,69,134)" stroke-linejoin="round" d="M 33380,11761 L 33380,12011 33630,12011 33630,11761 33380,11761 Z"/>
 <path fill="rgb(0,69,134)" stroke="none" d="M 35555,11941 L 35555,12191 35805,12191 35805,11941 35555,11941 Z"/>
 <path fill="none" stroke="rgb(0,69,134)" stroke-linejoin="round" d="M 35555,11941 L 35555,12191 35805,12191 35805,11941 35555,11941 Z"/>
 <text class="SVGTextShape"><tspan class="TextParagraph" font-family="Liberation Sans, sans-serif" font-size="353px" font-weight="400"><tspan class="TextPosition" x="2957" y="15274"><tspan fill="rgb(0,0,0)" stroke="none" style="white-space: pre">1</tspan></tspan></tspan></text>
 <text class="SVGTextShape"><tspan class="TextParagraph" font-family="Liberation Sans, sans-serif" font-size="353px" font-weight="400"><tspan class="TextPosition" x="5132" y="15274"><tspan fill="rgb(0,0,0)" stroke="none" style="white-space: pre">2</tspan></tspan></tspan></text>
 <text class="SVGTextShape"><tspan class="TextParagraph" font-family="Liberation Sans, sans-serif" font-size="353px" font-weight="400"><tspan class="TextPosition" x="7307" y="15274"><tspan fill="rgb(0,0,0)" stroke="none" style="white-space: pre">3</tspan></tspan></tspan></text>
 <text class="SVGTextShape"><tspan class="TextParagraph" font-family="Liberation Sans, sans-serif" font-size="353px" font-weight="400"><tspan class="TextPosition" x="9483" y="15274"><tspan fill="rgb(0,0,0)" stroke="none" style="white-space: pre">4</tspan></tspan></tspan></text>
 <text class="SVGTextShape"><tspan class="TextParagraph" font-family="Liberation Sans, sans-serif" font-size="353px" font-weight="400"><tspan class="TextPosition" x="11658" y="15274"><tspan fill="rgb(0,0,0)" stroke="none" style="white-space: pre">5</tspan></tspan></tspan></text>
 <text class="SVGTextShape"><tspan class="TextParagraph" font-family="Liberation Sans, sans-serif" font-size="353px" font-weight="400"><tspan class="TextPosition" x="13834" y="15274"><tspan fill="rgb(0,0,0)" stroke="none" style="white-space: pre">6</tspan></tspan></tspan></text>
 <text class="SVGTextShape"><tspan class="TextParagraph" font-family="Liberation Sans, sans-serif" font-size="353px" font-weight="400"><tspan class="TextPosition" x="16009" y="15274"><tspan fill="rgb(0,0,0)" stroke="none" style="white-space: pre">7</tspan></tspan></tspan></text>
 <text class="SVGTextShape"><tspan class="TextParagraph" font-family="Liberation Sans, sans-serif" font-size="353px" font-weight="400"><tspan class="TextPosition" x="18185" y="15274"><tspan fill="rgb(0,0,0)" stroke="none" style="white-space: pre">8</tspan></tspan></tspan></text>
 <text class="SVGTextShape"><tspan class="TextParagraph" font-family="Liberation Sans, sans-serif" font-size="353px" font-weight="400"><tspan class="TextPosition" x="20360" y="15274"><tspan fill="rgb(0,0,0)" stroke="none" style="white-space: pre">9</tspan></tspan></tspan></text>
 <text class="SVGTextShape"><tspan class="TextParagraph" font-family="Liberation Sans, sans-serif" font-size="353px" font-weight="400"><tspan class="TextPosition" x="22444" y="15274"><tspan fill="rgb(0,0,0)" stroke="none" style="white-space: pre">10</tspan></tspan></tspan></text>
 <text class="SVGTextShape"><tspan class="TextParagraph" font-family="Liberation Sans, sans-serif" font-size="353px" font-weight="400"><tspan class="TextPosition" x="24619" y="15274"><tspan fill="rgb(0,0,0)" stroke="none" style="white-space: pre">11</tspan></tspan></tspan></text>
 <text class="SVGTextShape"><tspan class="TextParagraph" font-family="Liberation Sans, sans-serif" font-size="353px" font-weight="400"><tspan class="TextPosition" x="26795" y="15274"><tspan fill="rgb(0,0,0)" stroke="none" style="white-space: pre">12</tspan></tspan></tspan></text>
 <text class="SVGTextShape"><tspan class="TextParagraph" font-family="Liberation Sans, sans-serif" font-size="353px" font-weight="400"><tspan class="TextPosition" x="28970" y="15274"><tspan fill="rgb(0,0,0)" stroke="none" style="white-space: pre">13</tspan></tspan></tspan></text>
 <text class="SVGTextShape"><tspan class="TextParagraph" font-family="Liberation Sans, sans-serif" font-size="353px" font-weight="400"><tspan class="TextPosition" x="31146" y="15274"><tspan fill="rgb(0,0,0)" stroke="none" style="white-space: pre">14</tspan></tspan></tspan></text>
 <text class="SVGTextShape"><tspan class="TextParagraph" font-family="Liberation Sans, sans-serif" font-size="353px" font-weight="400"><tspan class="TextPosition" x="33321" y="15274"><tspan fill="rgb(0,0,0)" stroke="none" style="white-space: pre">15</tspan></tspan></tspan></text>
 <text class="SVGTextShape"><tspan class="TextParagraph" font-family="Liberation Sans, sans-serif" font-size="353px" font-weight="400"><tspan class="TextPosition" x="35496" y="15274"><tspan fill="rgb(0,0,0)" stroke="none" style="white-space: pre">16</tspan></tspan></tspan></text>
 <text class="SVGTextShape"><tspan class="TextParagraph" font-family="Liberation Sans, sans-serif" font-size="353px" font-weight="400"><tspan class="TextPosition" x="1953" y="14827"><tspan fill="rgb(0,0,0)" stroke="none" style="white-space: pre">0.000</tspan></tspan></tspan></text>
 <text class="SVGTextShape"><tspan class="TextParagraph" font-family="Liberation Sans, sans-serif" font-size="353px" font-weight="400"><tspan class="TextPosition" x="1953" y="12462"><tspan fill="rgb(0,0,0)" stroke="none" style="white-space: pre">0.250</tspan></tspan></tspan></text>
 <text class="SVGTextShape"><tspan class="TextParagraph" font-family="Liberation Sans, sans-serif" font-size="353px" font-weight="400"><tspan class="TextPosition" x="1953" y="10098"><tspan fill="rgb(0,0,0)" stroke="none" style="white-space: pre">0.500</tspan></tspan></tspan></text>
 <text class="SVGTextShape"><tspan class="TextParagraph" font-family="Liberation Sans, sans-serif" font-size="353px" font-weight="400"><tspan class="TextPosition" x="1953" y="7734"><tspan fill="rgb(0,0,0)" stroke="none" style="white-space: pre">0.750</tspan></tspan></tspan></text>
 <text class="SVGTextShape"><tspan class="TextParagraph" font-family="Liberation Sans, sans-serif" font-size="353px" font-weight="400"><tspan class="TextPosition" x="1953" y="5370"><tspan fill="rgb(0,0,0)" stroke="none" style="white-space: pre">1.000</tspan></tspan></tspan></text>
 <text class="SVGTextShape"><tspan class="TextParagraph" font-family="Liberation Sans, sans-serif" font-size="353px" font-weight="400"><tspan class="TextPosition" x="1953" y="3006"><tspan fill="rgb(0,0,0)" stroke="none" style="white-space: pre">1.250</tspan></tspan></tspan></text>
 <text class="SVGTextShape"><tspan class="TextParagraph" font-family="Liberation Sans, sans-serif" font-size="353px" font-weight="400"><tspan class="TextPosition" x="1953" y="641"><tspan fill="rgb(0,0,0)" stroke="none" style="white-space: pre">1.500</tspan></tspan></tspan></text>
 <path fill="none" stroke="rgb(0,69,134)" stroke-width="80" stroke-linejoin="round" d="M 36817,8400 L 37617,8400"/>
 <path fill="rgb(0,69,134)" stroke="none" d="M 37090,8273 L 37090,8526 37344,8526 37344,8273 37090,8273 Z"/>
 <path fill="none" stroke="rgb(0,69,134)" stroke-linejoin="round" d="M 37090,8273 L 37090,8526 37344,8526 37344,8273 37090,8273 Z"/>
 <text class="SVGTextShape"><tspan class="TextParagraph" font-family="Liberation Sans, sans-serif" font-size="423px" font-weight="400"><tspan class="TextPosition" x="37717" y="8544"><tspan fill="rgb(0,0,0)" stroke="none" style="white-space: pre">new &amp; delete</tspan></tspan></tspan></text>
 <text class="SVGTextShape"><tspan class="TextParagraph" font-family="Liberation Sans, sans-serif" font-size="423px" font-weight="400"><tspan class="TextPosition" x="18129" y="16188"><tspan fill="rgb(0,0,0)" stroke="none" style="white-space: pre">Threads</tspan></tspan></tspan></text>
 <text class="SVGTextShape" transform="rotate(-90 935 8632)"><tspan class="TextParagraph" font-family="Liberation Sans, sans-serif" font-size="423px" font-weight="400"><tspan class="TextPosition" x="935" y="8632"><tspan fill="rgb(0,0,0)" stroke="none" style="white-space: pre">seconds</tspan></tspan></tspan></text>
</svg>